<svg version="1.2" baseProfile="tiny-ps" xmlns="http://www.w3.org/2000/svg" viewBox="0 0 20 20" width="70" height="70">
	<title>view-details-icon-svg</title>
	<style>
		tspan { white-space:pre }
		.shp0 { fill: #ffffff } 
	</style>
	<path id="Layer" fill-rule="evenodd" class="shp0" d="M4.25 5.62C5.98 4.56 7.97 4 10 4C12.03 4 14.02 4.56 15.75 5.62C17.48 6.68 18.88 8.19 19.8 10C18.88 11.81 17.48 13.32 15.75 14.38C14.02 15.44 12.03 16 10 16C7.97 16 5.98 15.44 4.25 14.38C2.52 13.32 1.12 11.81 0.2 10C1.12 8.19 2.52 6.68 4.25 5.62ZM12.83 12.83C13.58 12.08 14 11.06 14 10C14 8.94 13.58 7.92 12.83 7.17C12.08 6.42 11.06 6 10 6C8.94 6 7.92 6.42 7.17 7.17C6.42 7.92 6 8.94 6 10C6 11.06 6.42 12.08 7.17 12.83C7.92 13.58 8.94 14 10 14C11.06 14 12.08 13.58 12.83 12.83ZM10 12C9.47 12 8.96 11.79 8.59 11.41C8.21 11.04 8 10.53 8 10C8 9.47 8.21 8.96 8.59 8.59C8.96 8.21 9.47 8 10 8C10.53 8 11.04 8.21 11.41 8.59C11.79 8.96 12 9.47 12 10C12 10.53 11.79 11.04 11.41 11.41C11.04 11.79 10.53 12 10 12Z" />
</svg>